<svg width="600" height="380" viewBox="0 0 600 380" fill="none" xmlns="http://www.w3.org/2000/svg">
<path d="M300 376.448L5.60742 190L300 3.55078L594.394 190L300 376.448Z" fill="#EA1C28" stroke="#BC2C2B" stroke-width="6"/>
<g filter="url(#filter0_d_1_71)">
<mask id="path-2-outside-1_1_71" maskUnits="userSpaceOnUse" x="14" y="116" width="566" height="145" fill="black">
<rect fill="white" x="14" y="116" width="566" height="145"/>
<path d="M93.056 121.6V194.368C93.056 201.536 93.44 207.04 94.208 210.88C95.104 214.592 96.832 218.88 99.392 223.744C101.952 228.48 103.68 230.848 104.576 230.848C105.6 230.848 107.392 228.48 109.952 223.744C112.512 218.88 114.24 214.592 115.136 210.88C116.032 207.04 116.48 201.536 116.48 194.368V173.824C116.48 163.072 115.712 155.584 114.176 151.36C112.768 147.008 109.696 141.696 104.96 135.424L128 119.296C132.096 122.112 135.616 127.36 138.56 135.04C141.504 142.72 142.976 151.936 142.976 162.688V194.368C142.976 204.352 142.016 212.608 140.096 219.136C138.176 225.536 132.864 233.664 124.16 243.52C115.584 253.376 109.12 258.304 104.768 258.304C102.08 258.304 98.304 255.872 93.44 251.008C88.704 246.144 84.16 240.448 79.808 233.92C75.2 240.576 70.528 246.336 65.792 251.2C61.184 255.936 57.536 258.304 54.848 258.304C50.496 258.304 43.968 253.376 35.264 243.52C26.688 233.664 21.44 225.536 19.52 219.136C17.6 212.608 16.64 204.352 16.64 194.368V121.6H43.136V194.368C43.136 202.688 43.584 208.448 44.48 211.648C45.376 214.848 47.104 218.88 49.664 223.744C52.224 228.48 53.952 230.848 54.848 230.848C55.872 230.848 57.664 228.48 60.224 223.744C62.784 218.88 64.448 214.592 65.216 210.88C66.112 207.04 66.56 201.536 66.56 194.368V121.6H93.056ZM160.502 256V121.6H186.998V256H160.502ZM278.966 256H202.55V236.8L249.782 144.64H204.854V121.6H278.966V140.8L231.542 232.96H278.966V256ZM312.421 131.776C321.509 123.456 328.421 119.296 333.156 119.296C337.892 119.296 344.805 123.456 353.893 131.776C362.981 140.096 368.613 146.944 370.789 152.32C372.197 156.032 372.901 164.416 372.901 177.472V256H346.405V227.2H319.909V256H293.413V177.472C293.413 164.416 294.117 156.032 295.525 152.32C297.701 146.944 303.333 140.096 312.421 131.776ZM319.909 177.472V204.16H346.405V177.472C346.405 166.976 345.893 160.576 344.869 158.272C343.845 155.84 342.053 153.344 339.493 150.784C337.061 148.096 334.949 146.752 333.156 146.752C331.365 146.752 329.189 148.096 326.629 150.784C324.197 153.344 322.469 155.84 321.445 158.272C320.421 160.576 319.909 166.976 319.909 177.472ZM416.998 129.856C427.238 122.816 434.214 119.296 437.926 119.296C441.638 119.296 447.334 122.688 455.014 129.472C462.822 136.128 467.686 140.864 469.606 143.68C471.526 146.368 472.486 149.952 472.486 154.432C472.486 163.136 471.782 168.32 470.374 169.984C467.686 174.08 463.526 178.88 457.894 184.384C465.702 191.808 470.566 197.504 472.486 201.472C473.51 204.16 474.598 212.352 475.75 226.048C476.902 239.616 477.478 249.6 477.478 256H448.678C448.678 250.24 448.166 241.216 447.142 228.928C446.118 216.64 444.966 209.216 443.686 206.656C442.534 204.096 441.126 201.856 439.462 199.936H422.374V256H395.878V171.904C395.878 161.536 395.11 154.368 393.574 150.4C392.166 146.304 389.094 141.312 384.358 135.424L407.398 119.296C411.494 121.984 414.694 125.504 416.998 129.856ZM422.374 162.688V177.472H429.862C431.654 177.472 433.958 176.064 436.774 173.248C439.59 170.432 441.382 168.064 442.15 166.144C443.046 164.096 443.494 161.984 443.494 159.808C443.494 157.632 443.046 155.712 442.15 154.048C441.382 152.256 440.23 150.272 438.694 148.096C437.158 145.92 435.878 144.832 434.854 144.832C431.398 144.832 427.046 145.664 421.798 147.328C422.182 152.32 422.374 157.44 422.374 162.688ZM519.368 129.28C527.816 122.624 534.216 119.296 538.568 119.296C542.92 119.296 549.64 123.52 558.728 131.968C567.944 140.288 573.64 147.072 575.816 152.32C577.224 155.648 577.928 164.032 577.928 177.472V200.128C577.928 213.568 577.224 221.952 575.816 225.28C573.512 230.272 567.944 236.672 559.112 244.48C550.28 252.16 543.304 256 538.184 256H498.44V173.824C498.44 163.456 497.672 156.16 496.136 151.936C494.728 147.712 491.656 142.72 486.92 136.96L512.264 119.296C514.952 121.344 517.32 124.672 519.368 129.28ZM538.184 146.752C534.472 146.752 529.864 147.968 524.36 150.4C524.744 153.088 524.936 157.184 524.936 162.688V232.768H538.184C539.976 232.768 542.088 231.488 544.52 228.928C547.08 226.24 548.872 223.744 549.896 221.44C550.92 219.008 551.432 212.544 551.432 202.048V177.472C551.432 166.976 550.92 160.576 549.896 158.272C548.872 155.84 547.08 153.344 544.52 150.784C542.088 148.096 539.976 146.752 538.184 146.752Z"/>
</mask>
<path d="M93.056 121.6V194.368C93.056 201.536 93.44 207.04 94.208 210.88C95.104 214.592 96.832 218.88 99.392 223.744C101.952 228.48 103.68 230.848 104.576 230.848C105.6 230.848 107.392 228.48 109.952 223.744C112.512 218.88 114.24 214.592 115.136 210.88C116.032 207.04 116.48 201.536 116.48 194.368V173.824C116.48 163.072 115.712 155.584 114.176 151.36C112.768 147.008 109.696 141.696 104.96 135.424L128 119.296C132.096 122.112 135.616 127.36 138.56 135.04C141.504 142.72 142.976 151.936 142.976 162.688V194.368C142.976 204.352 142.016 212.608 140.096 219.136C138.176 225.536 132.864 233.664 124.16 243.52C115.584 253.376 109.12 258.304 104.768 258.304C102.08 258.304 98.304 255.872 93.44 251.008C88.704 246.144 84.16 240.448 79.808 233.92C75.2 240.576 70.528 246.336 65.792 251.2C61.184 255.936 57.536 258.304 54.848 258.304C50.496 258.304 43.968 253.376 35.264 243.52C26.688 233.664 21.44 225.536 19.52 219.136C17.6 212.608 16.64 204.352 16.64 194.368V121.6H43.136V194.368C43.136 202.688 43.584 208.448 44.48 211.648C45.376 214.848 47.104 218.88 49.664 223.744C52.224 228.48 53.952 230.848 54.848 230.848C55.872 230.848 57.664 228.48 60.224 223.744C62.784 218.88 64.448 214.592 65.216 210.88C66.112 207.04 66.56 201.536 66.56 194.368V121.6H93.056ZM160.502 256V121.6H186.998V256H160.502ZM278.966 256H202.55V236.8L249.782 144.64H204.854V121.6H278.966V140.8L231.542 232.96H278.966V256ZM312.421 131.776C321.509 123.456 328.421 119.296 333.156 119.296C337.892 119.296 344.805 123.456 353.893 131.776C362.981 140.096 368.613 146.944 370.789 152.32C372.197 156.032 372.901 164.416 372.901 177.472V256H346.405V227.2H319.909V256H293.413V177.472C293.413 164.416 294.117 156.032 295.525 152.32C297.701 146.944 303.333 140.096 312.421 131.776ZM319.909 177.472V204.16H346.405V177.472C346.405 166.976 345.893 160.576 344.869 158.272C343.845 155.84 342.053 153.344 339.493 150.784C337.061 148.096 334.949 146.752 333.156 146.752C331.365 146.752 329.189 148.096 326.629 150.784C324.197 153.344 322.469 155.84 321.445 158.272C320.421 160.576 319.909 166.976 319.909 177.472ZM416.998 129.856C427.238 122.816 434.214 119.296 437.926 119.296C441.638 119.296 447.334 122.688 455.014 129.472C462.822 136.128 467.686 140.864 469.606 143.68C471.526 146.368 472.486 149.952 472.486 154.432C472.486 163.136 471.782 168.32 470.374 169.984C467.686 174.08 463.526 178.88 457.894 184.384C465.702 191.808 470.566 197.504 472.486 201.472C473.51 204.16 474.598 212.352 475.75 226.048C476.902 239.616 477.478 249.6 477.478 256H448.678C448.678 250.24 448.166 241.216 447.142 228.928C446.118 216.64 444.966 209.216 443.686 206.656C442.534 204.096 441.126 201.856 439.462 199.936H422.374V256H395.878V171.904C395.878 161.536 395.11 154.368 393.574 150.4C392.166 146.304 389.094 141.312 384.358 135.424L407.398 119.296C411.494 121.984 414.694 125.504 416.998 129.856ZM422.374 162.688V177.472H429.862C431.654 177.472 433.958 176.064 436.774 173.248C439.59 170.432 441.382 168.064 442.15 166.144C443.046 164.096 443.494 161.984 443.494 159.808C443.494 157.632 443.046 155.712 442.15 154.048C441.382 152.256 440.23 150.272 438.694 148.096C437.158 145.92 435.878 144.832 434.854 144.832C431.398 144.832 427.046 145.664 421.798 147.328C422.182 152.32 422.374 157.44 422.374 162.688ZM519.368 129.28C527.816 122.624 534.216 119.296 538.568 119.296C542.92 119.296 549.64 123.52 558.728 131.968C567.944 140.288 573.64 147.072 575.816 152.32C577.224 155.648 577.928 164.032 577.928 177.472V200.128C577.928 213.568 577.224 221.952 575.816 225.28C573.512 230.272 567.944 236.672 559.112 244.48C550.28 252.16 543.304 256 538.184 256H498.44V173.824C498.44 163.456 497.672 156.16 496.136 151.936C494.728 147.712 491.656 142.72 486.92 136.96L512.264 119.296C514.952 121.344 517.32 124.672 519.368 129.28ZM538.184 146.752C534.472 146.752 529.864 147.968 524.36 150.4C524.744 153.088 524.936 157.184 524.936 162.688V232.768H538.184C539.976 232.768 542.088 231.488 544.52 228.928C547.08 226.24 548.872 223.744 549.896 221.44C550.92 219.008 551.432 212.544 551.432 202.048V177.472C551.432 166.976 550.92 160.576 549.896 158.272C548.872 155.84 547.08 153.344 544.52 150.784C542.088 148.096 539.976 146.752 538.184 146.752Z" fill="#FCCF51"/>
<path d="M93.056 121.6H95.056V119.6H93.056V121.6ZM94.208 210.88L92.2468 211.272L92.2546 211.311L92.2638 211.349L94.208 210.88ZM99.392 223.744L97.6222 224.675L97.6273 224.685L97.6326 224.695L99.392 223.744ZM109.952 223.744L111.711 224.695L111.717 224.685L111.722 224.675L109.952 223.744ZM115.136 210.88L117.08 211.349L117.082 211.342L117.084 211.334L115.136 210.88ZM114.176 151.36L112.273 151.976L112.284 152.01L112.296 152.043L114.176 151.36ZM104.96 135.424L103.813 133.786L102.114 134.975L103.364 136.629L104.96 135.424ZM128 119.296L129.133 117.648L127.99 116.862L126.853 117.658L128 119.296ZM140.096 219.136L142.012 219.711L142.015 219.7L140.096 219.136ZM124.16 243.52L122.661 242.196L122.656 242.202L122.651 242.207L124.16 243.52ZM93.44 251.008L92.0071 252.403L92.0164 252.413L92.0258 252.422L93.44 251.008ZM79.808 233.92L81.4721 232.811L79.8392 230.361L78.1636 232.782L79.808 233.92ZM65.792 251.2L64.3591 249.805L64.3586 249.805L65.792 251.2ZM35.264 243.52L33.7552 244.833L33.76 244.838L33.7649 244.844L35.264 243.52ZM19.52 219.136L17.6012 219.7L17.6043 219.711L19.52 219.136ZM16.64 121.6V119.6H14.64V121.6H16.64ZM43.136 121.6H45.136V119.6H43.136V121.6ZM44.48 211.648L42.5541 212.187V212.187L44.48 211.648ZM49.664 223.744L47.8942 224.675L47.8993 224.685L47.9046 224.695L49.664 223.744ZM60.224 223.744L61.9834 224.695L61.9887 224.685L61.9938 224.675L60.224 223.744ZM65.216 210.88L63.2683 210.426L63.2626 210.45L63.2575 210.475L65.216 210.88ZM66.56 121.6V119.6H64.56V121.6H66.56ZM93.056 121.6H91.056V194.368H93.056H95.056V121.6H93.056ZM93.056 194.368H91.056C91.056 201.578 91.44 207.238 92.2468 211.272L94.208 210.88L96.1692 210.488C95.44 206.842 95.056 201.494 95.056 194.368H93.056ZM94.208 210.88L92.2638 211.349C93.2115 215.275 95.0158 219.723 97.6222 224.675L99.392 223.744L101.162 222.812C98.6483 218.037 96.9965 213.909 96.1522 210.411L94.208 210.88ZM99.392 223.744L97.6326 224.695C98.9263 227.088 100.049 228.958 100.992 230.251C101.46 230.892 101.933 231.46 102.408 231.889C102.796 232.239 103.559 232.848 104.576 232.848V230.848V228.848C105.145 228.848 105.356 229.161 105.088 228.919C104.907 228.756 104.62 228.436 104.224 227.893C103.439 226.818 102.418 225.136 101.151 222.793L99.392 223.744ZM104.576 230.848V232.848C105.554 232.848 106.319 232.318 106.775 231.935C107.289 231.502 107.792 230.927 108.283 230.279C109.271 228.974 110.415 227.093 111.711 224.695L109.952 223.744L108.193 222.793C106.929 225.131 105.897 226.802 105.093 227.865C104.688 228.401 104.391 228.714 104.201 228.873C103.953 229.082 104.11 228.848 104.576 228.848V230.848ZM109.952 223.744L111.722 224.675C114.328 219.723 116.133 215.275 117.08 211.349L115.136 210.88L113.192 210.411C112.347 213.909 110.696 218.037 108.182 222.812L109.952 223.744ZM115.136 210.88L117.084 211.334C118.032 207.271 118.48 201.586 118.48 194.368H116.48H114.48C114.48 201.486 114.032 206.809 113.188 210.426L115.136 210.88ZM116.48 194.368H118.48V173.824H116.48H114.48V194.368H116.48ZM116.48 173.824H118.48C118.48 163.074 117.724 155.265 116.056 150.677L114.176 151.36L112.296 152.043C113.7 155.903 114.48 163.07 114.48 173.824H116.48ZM114.176 151.36L116.079 150.744C114.57 146.081 111.344 140.56 106.556 134.219L104.96 135.424L103.364 136.629C108.048 142.832 110.966 147.935 112.273 151.976L114.176 151.36ZM104.96 135.424L106.107 137.062L129.147 120.934L128 119.296L126.853 117.658L103.813 133.786L104.96 135.424ZM128 119.296L126.867 120.944C130.475 123.425 133.808 128.23 136.693 135.756L138.56 135.04L140.427 134.324C137.424 126.49 133.717 120.799 129.133 117.648L128 119.296ZM138.56 135.04L136.693 135.756C139.527 143.149 140.976 152.109 140.976 162.688H142.976H144.976C144.976 151.763 143.481 142.291 140.427 134.324L138.56 135.04ZM142.976 162.688H140.976V194.368H142.976H144.976V162.688H142.976ZM142.976 194.368H140.976C140.976 204.241 140.025 212.291 138.177 218.572L140.096 219.136L142.015 219.7C144.007 212.925 144.976 204.463 144.976 194.368H142.976ZM140.096 219.136L138.18 218.561C136.39 224.528 131.324 232.387 122.661 242.196L124.16 243.52L125.659 244.844C134.404 234.941 139.962 226.544 142.012 219.711L140.096 219.136ZM124.16 243.52L122.651 242.207C118.406 247.086 114.747 250.67 111.667 253.018C108.522 255.416 106.263 256.304 104.768 256.304V258.304V260.304C107.625 260.304 110.774 258.728 114.093 256.199C117.477 253.618 121.338 249.81 125.669 244.833L124.16 243.52ZM104.768 258.304V256.304C103.987 256.304 102.762 255.931 101.003 254.799C99.2799 253.689 97.2327 251.972 94.8542 249.594L93.44 251.008L92.0258 252.422C94.5113 254.908 96.7841 256.839 98.837 258.161C100.854 259.461 102.861 260.304 104.768 260.304V258.304ZM93.44 251.008L94.8729 249.613C90.2346 244.849 85.7663 239.252 81.4721 232.811L79.808 233.92L78.1439 235.029C82.5538 241.644 87.1734 247.439 92.0071 252.403L93.44 251.008ZM79.808 233.92L78.1636 232.782C73.6072 239.363 69.0045 245.034 64.3591 249.805L65.792 251.2L67.2249 252.595C72.0515 247.638 76.7928 241.789 81.4524 235.058L79.808 233.92ZM65.792 251.2L64.3586 249.805C62.1108 252.115 60.1634 253.778 58.5111 254.85C56.8294 255.942 55.6344 256.304 54.848 256.304V258.304V260.304C56.7496 260.304 58.7226 259.482 60.6889 258.206C62.6846 256.91 64.8652 255.021 67.2255 252.595L65.792 251.2ZM54.848 258.304V256.304C53.3496 256.304 51.0732 255.413 47.893 253.012C44.7803 250.662 41.0729 247.076 36.7631 242.196L35.264 243.52L33.7649 244.844C38.1591 249.82 42.0677 253.626 45.483 256.204C48.8308 258.731 51.9944 260.304 54.848 260.304V258.304ZM35.264 243.52L36.7728 242.207C28.2387 232.399 23.2283 224.537 21.4357 218.561L19.52 219.136L17.6043 219.711C19.6517 226.535 25.1373 234.929 33.7552 244.833L35.264 243.52ZM19.52 219.136L21.4387 218.572C19.5914 212.291 18.64 204.241 18.64 194.368H16.64H14.64C14.64 204.463 15.6086 212.925 17.6013 219.7L19.52 219.136ZM16.64 194.368H18.64V121.6H16.64H14.64V194.368H16.64ZM16.64 121.6V123.6H43.136V121.6V119.6H16.64V121.6ZM43.136 121.6H41.136V194.368H43.136H45.136V121.6H43.136ZM43.136 194.368H41.136C41.136 202.678 41.5754 208.692 42.5541 212.187L44.48 211.648L46.4059 211.109C45.5926 208.204 45.136 202.698 45.136 194.368H43.136ZM44.48 211.648L42.5541 212.187C43.5047 215.582 45.3051 219.756 47.8942 224.675L49.664 223.744L51.4338 222.812C48.9029 218.004 47.2473 214.114 46.4059 211.109L44.48 211.648ZM49.664 223.744L47.9046 224.695C49.1983 227.088 50.3207 228.958 51.2644 230.251C51.732 230.892 52.2052 231.46 52.6801 231.889C53.0677 232.239 53.8305 232.848 54.848 232.848V230.848V228.848C55.4175 228.848 55.6283 229.161 55.3599 228.919C55.1788 228.756 54.892 228.436 54.4956 227.893C53.7113 226.818 52.6897 225.136 51.4234 222.793L49.664 223.744ZM54.848 230.848V232.848C55.8265 232.848 56.591 232.318 57.0472 231.935C57.5613 231.502 58.0644 230.927 58.5548 230.279C59.5425 228.974 60.6872 227.093 61.9834 224.695L60.224 223.744L58.4646 222.793C57.2008 225.131 56.1695 226.802 55.3652 227.865C54.9596 228.401 54.6627 228.714 54.4728 228.873C54.225 229.082 54.3815 228.848 54.848 228.848V230.848ZM60.224 223.744L61.9938 224.675C64.6056 219.713 66.3557 215.243 67.1745 211.285L65.216 210.88L63.2575 210.475C62.5403 213.941 60.9624 218.047 58.4542 222.812L60.224 223.744ZM65.216 210.88L67.1637 211.334C68.1119 207.271 68.56 201.586 68.56 194.368H66.56H64.56C64.56 201.486 64.1121 206.809 63.2683 210.426L65.216 210.88ZM66.56 194.368H68.56V121.6H66.56H64.56V194.368H66.56ZM66.56 121.6V123.6H93.056V121.6V119.6H66.56V121.6ZM160.502 256H158.502V258H160.502V256ZM160.502 121.6V119.6H158.502V121.6H160.502ZM186.998 121.6H188.998V119.6H186.998V121.6ZM186.998 256V258H188.998V256H186.998ZM160.502 256H162.502V121.6H160.502H158.502V256H160.502ZM160.502 121.6V123.6H186.998V121.6V119.6H160.502V121.6ZM186.998 121.6H184.998V256H186.998H188.998V121.6H186.998ZM186.998 256V254H160.502V256V258H186.998V256ZM278.966 256V258H280.966V256H278.966ZM202.55 256H200.55V258H202.55V256ZM202.55 236.8L200.77 235.888L200.55 236.317V236.8H202.55ZM249.782 144.64L251.562 145.552L253.054 142.64H249.782V144.64ZM204.854 144.64H202.854V146.64H204.854V144.64ZM204.854 121.6V119.6H202.854V121.6H204.854ZM278.966 121.6H280.966V119.6H278.966V121.6ZM278.966 140.8L280.744 141.715L280.966 141.284V140.8H278.966ZM231.542 232.96L229.764 232.045L228.264 234.96H231.542V232.96ZM278.966 232.96H280.966V230.96H278.966V232.96ZM278.966 256V254H202.55V256V258H278.966V256ZM202.55 256H204.55V236.8H202.55H200.55V256H202.55ZM202.55 236.8L204.33 237.712L251.562 145.552L249.782 144.64L248.002 143.728L200.77 235.888L202.55 236.8ZM249.782 144.64V142.64H204.854V144.64V146.64H249.782V144.64ZM204.854 144.64H206.854V121.6H204.854H202.854V144.64H204.854ZM204.854 121.6V123.6H278.966V121.6V119.6H204.854V121.6ZM278.966 121.6H276.966V140.8H278.966H280.966V121.6H278.966ZM278.966 140.8L277.188 139.885L229.764 232.045L231.542 232.96L233.32 233.875L280.744 141.715L278.966 140.8ZM231.542 232.96V234.96H278.966V232.96V230.96H231.542V232.96ZM278.966 232.96H276.966V256H278.966H280.966V232.96H278.966ZM312.421 131.776L311.07 130.301V130.301L312.421 131.776ZM370.789 152.32L372.659 151.611L372.651 151.59L372.642 151.57L370.789 152.32ZM372.901 256V258H374.901V256H372.901ZM346.405 256H344.405V258H346.405V256ZM346.405 227.2H348.405V225.2H346.405V227.2ZM319.909 227.2V225.2H317.909V227.2H319.909ZM319.909 256V258H321.909V256H319.909ZM293.413 256H291.413V258H293.413V256ZM295.525 152.32L293.671 151.57L293.662 151.59L293.655 151.611L295.525 152.32ZM319.909 204.16H317.909V206.16H319.909V204.16ZM346.405 204.16V206.16H348.405V204.16H346.405ZM344.868 158.272L343.025 159.048L343.033 159.066L343.041 159.084L344.868 158.272ZM339.492 150.784L338.009 152.126L338.043 152.163L338.078 152.198L339.492 150.784ZM326.629 150.784L325.18 149.405L325.178 149.406L326.629 150.784ZM321.445 158.272L323.272 159.084L323.28 159.066L323.288 159.048L321.445 158.272ZM312.421 131.776L313.771 133.251C318.262 129.139 322.153 126.115 325.452 124.13C328.79 122.121 331.325 121.296 333.156 121.296V119.296V117.296C330.252 117.296 326.963 118.551 323.389 120.702C319.776 122.877 315.667 126.093 311.07 130.301L312.421 131.776ZM333.156 119.296V121.296C334.988 121.296 337.523 122.121 340.861 124.13C344.16 126.115 348.051 129.139 352.542 133.251L353.893 131.776L355.243 130.301C350.646 126.093 346.537 122.877 342.924 120.702C339.35 118.551 336.061 117.296 333.156 117.296V119.296ZM353.893 131.776L352.542 133.251C361.603 141.547 366.939 148.139 368.935 153.07L370.789 152.32L372.642 151.57C370.286 145.749 364.358 138.645 355.243 130.301L353.893 131.776ZM370.789 152.32L368.919 153.029C369.517 154.607 370.03 157.394 370.38 161.559C370.725 165.674 370.901 170.973 370.901 177.472H372.901H374.901C374.901 170.915 374.724 165.494 374.365 161.225C374.011 157.006 373.468 153.745 372.659 151.611L370.789 152.32ZM372.901 177.472H370.901V256H372.901H374.901V177.472H372.901ZM372.901 256V254H346.405V256V258H372.901V256ZM346.405 256H348.405V227.2H346.405H344.405V256H346.405ZM346.405 227.2V225.2H319.909V227.2V229.2H346.405V227.2ZM319.909 227.2H317.909V256H319.909H321.909V227.2H319.909ZM319.909 256V254H293.413V256V258H319.909V256ZM293.413 256H295.413V177.472H293.413H291.413V256H293.413ZM293.413 177.472H295.413C295.413 170.973 295.588 165.674 295.933 161.559C296.283 157.394 296.796 154.607 297.395 153.029L295.525 152.32L293.655 151.611C292.845 153.745 292.302 157.006 291.948 161.225C291.589 165.494 291.413 170.915 291.413 177.472H293.413ZM295.525 152.32L297.378 153.07C299.374 148.139 304.71 141.547 313.771 133.251L312.421 131.776L311.07 130.301C301.955 138.645 296.027 145.749 293.671 151.57L295.525 152.32ZM319.909 177.472H317.909V204.16H319.909H321.909V177.472H319.909ZM319.909 204.16V206.16H346.405V204.16V202.16H319.909V204.16ZM346.405 204.16H348.405V177.472H346.405H344.405V204.16H346.405ZM346.405 177.472H348.405C348.405 172.2 348.276 167.916 348.014 164.641C347.76 161.459 347.364 158.962 346.696 157.46L344.868 158.272L343.041 159.084C343.397 159.886 343.769 161.741 344.027 164.959C344.277 168.084 344.405 172.248 344.405 177.472H346.405ZM344.868 158.272L346.712 157.496C345.558 154.755 343.586 152.049 340.907 149.37L339.492 150.784L338.078 152.198C340.519 154.639 342.131 156.925 343.025 159.048L344.868 158.272ZM339.492 150.784L340.976 149.442C338.504 146.71 335.874 144.752 333.156 144.752V146.752V148.752C334.023 148.752 335.617 149.482 338.009 152.126L339.492 150.784ZM333.156 146.752V144.752C331.763 144.752 330.405 145.27 329.13 146.058C327.847 146.851 326.53 147.987 325.18 149.405L326.629 150.784L328.077 152.163C329.287 150.893 330.338 150.013 331.231 149.462C332.132 148.906 332.758 148.752 333.156 148.752V146.752ZM326.629 150.784L325.178 149.406C322.633 152.086 320.745 154.78 319.601 157.496L321.445 158.272L323.288 159.048C324.192 156.9 325.76 154.602 328.078 152.161L326.629 150.784ZM321.445 158.272L319.617 157.46C318.949 158.962 318.553 161.459 318.299 164.641C318.037 167.916 317.909 172.2 317.909 177.472H319.909H321.909C321.909 172.248 322.036 168.084 322.286 164.959C322.544 161.741 322.916 159.886 323.272 159.084L321.445 158.272ZM416.997 129.856L415.23 130.792L416.28 132.776L418.131 131.504L416.997 129.856ZM455.013 129.472L453.689 130.971L453.703 130.983L453.716 130.994L455.013 129.472ZM469.605 143.68L467.953 144.807L467.965 144.825L467.978 144.842L469.605 143.68ZM470.374 169.984L468.847 168.692L468.768 168.785L468.701 168.887L470.374 169.984ZM457.893 184.384L456.496 182.954L455.012 184.404L456.515 185.833L457.893 184.384ZM472.486 201.472L474.354 200.76L474.324 200.679L474.286 200.601L472.486 201.472ZM475.75 226.048L473.757 226.216L473.757 226.217L475.75 226.048ZM477.478 256V258H479.478V256H477.478ZM448.677 256H446.677V258H448.677V256ZM447.142 228.928L445.148 229.094V229.094L447.142 228.928ZM443.685 206.656L441.862 207.477L441.878 207.514L441.897 207.55L443.685 206.656ZM439.461 199.936L440.973 198.626L440.375 197.936H439.461V199.936ZM422.374 199.936V197.936H420.374V199.936H422.374ZM422.374 256V258H424.374V256H422.374ZM395.878 256H393.878V258H395.878V256ZM393.573 150.4L391.682 151.05L391.695 151.086L391.708 151.122L393.573 150.4ZM384.358 135.424L383.211 133.786L381.459 135.012L382.799 136.678L384.358 135.424ZM407.397 119.296L408.495 117.624L407.361 116.88L406.251 117.658L407.397 119.296ZM422.374 177.472H420.374V179.472H422.374V177.472ZM442.15 166.144L440.317 165.342L440.304 165.372L440.293 165.401L442.15 166.144ZM442.15 154.048L440.311 154.836L440.346 154.918L440.389 154.996L442.15 154.048ZM421.797 147.328L421.193 145.422L419.682 145.901L419.803 147.481L421.797 147.328ZM416.997 129.856L418.131 131.504C423.214 128.009 427.435 125.425 430.81 123.722C434.262 121.98 436.573 121.296 437.926 121.296V119.296V117.296C435.566 117.296 432.533 118.372 429.009 120.15C425.408 121.967 421.021 124.663 415.864 128.208L416.997 129.856ZM437.926 119.296V121.296C439.237 121.296 441.21 121.922 443.958 123.558C446.658 125.166 449.898 127.622 453.689 130.971L455.013 129.472L456.338 127.973C452.449 124.538 449.001 121.906 446.005 120.122C443.057 118.366 440.326 117.296 437.926 117.296V119.296ZM455.013 129.472L453.716 130.994C461.56 137.681 466.209 142.249 467.953 144.807L469.605 143.68L471.258 142.553C469.162 139.479 464.083 134.575 456.311 127.95L455.013 129.472ZM469.605 143.68L467.978 144.842C469.583 147.089 470.486 150.223 470.486 154.432H472.486H474.486C474.486 149.681 473.468 145.647 471.233 142.518L469.605 143.68ZM472.486 154.432H470.486C470.486 158.745 470.31 162.115 469.976 164.579C469.808 165.811 469.607 166.771 469.386 167.487C469.157 168.23 468.948 168.573 468.847 168.692L470.374 169.984L471.9 171.276C472.503 170.563 472.91 169.634 473.209 168.665C473.516 167.669 473.755 166.477 473.939 165.117C474.309 162.397 474.486 158.823 474.486 154.432H472.486ZM470.374 169.984L468.701 168.887C466.125 172.812 462.079 177.498 456.496 182.954L457.893 184.384L459.291 185.814C464.972 180.262 469.246 175.348 472.046 171.081L470.374 169.984ZM457.893 184.384L456.515 185.833C464.33 193.263 468.941 198.738 470.685 202.343L472.486 201.472L474.286 200.601C472.19 196.27 467.073 190.353 459.272 182.935L457.893 184.384ZM472.486 201.472L470.617 202.184C471.033 203.276 471.539 205.767 472.087 209.895C472.625 213.946 473.182 219.382 473.757 226.216L475.75 226.048L477.742 225.88C477.165 219.018 476.602 213.51 476.052 209.369C475.512 205.305 474.962 202.356 474.354 200.76L472.486 201.472ZM475.75 226.048L473.757 226.217C474.908 239.777 475.478 249.69 475.478 256H477.478H479.478C479.478 249.51 478.895 239.455 477.742 225.879L475.75 226.048ZM477.478 256V254H448.677V256V258H477.478V256ZM448.677 256H450.677C450.677 250.152 450.159 241.058 449.135 228.762L447.142 228.928L445.148 229.094C446.172 241.374 446.677 250.328 446.677 256H448.677ZM447.142 228.928L449.135 228.762C448.621 222.596 448.072 217.616 447.486 213.837C446.913 210.149 446.272 207.357 445.474 205.762L443.685 206.656L441.897 207.55C442.379 208.515 442.954 210.715 443.533 214.451C444.099 218.096 444.638 222.971 445.148 229.094L447.142 228.928ZM443.685 206.656L445.509 205.835C444.286 203.116 442.777 200.708 440.973 198.626L439.461 199.936L437.95 201.246C439.474 203.004 440.781 205.076 441.862 207.477L443.685 206.656ZM439.461 199.936V197.936H422.374V199.936V201.936H439.461V199.936ZM422.374 199.936H420.374V256H422.374H424.374V199.936H422.374ZM422.374 256V254H395.878V256V258H422.374V256ZM395.878 256H397.878V171.904H395.878H393.878V256H395.878ZM395.878 171.904H397.878C397.878 161.544 397.124 154.032 395.439 149.678L393.573 150.4L391.708 151.122C393.095 154.704 393.878 161.528 393.878 171.904H395.878ZM393.573 150.4L395.465 149.75C393.946 145.33 390.706 140.125 385.916 134.17L384.358 135.424L382.799 136.678C387.481 142.499 390.385 147.278 391.682 151.05L393.573 150.4ZM384.358 135.424L385.504 137.062L408.544 120.934L407.397 119.296L406.251 117.658L383.211 133.786L384.358 135.424ZM407.397 119.296L406.3 120.968C410.113 123.47 413.083 126.736 415.23 130.792L416.997 129.856L418.765 128.92C416.304 124.272 412.874 120.498 408.495 117.624L407.397 119.296ZM422.374 162.688H420.374V177.472H422.374H424.374V162.688H422.374ZM422.374 177.472V179.472H429.862V177.472V175.472H422.374V177.472ZM429.862 177.472V179.472C431.267 179.472 432.658 178.928 433.976 178.123C435.311 177.307 436.715 176.134 438.188 174.662L436.773 173.248L435.359 171.834C434.016 173.177 432.86 174.117 431.891 174.709C430.905 175.312 430.248 175.472 429.862 175.472V177.472ZM436.773 173.248L438.188 174.662C441.051 171.799 443.083 169.196 444.006 166.887L442.15 166.144L440.293 165.401C439.68 166.932 438.128 169.065 435.359 171.834L436.773 173.248ZM442.15 166.144L443.982 166.946C444.985 164.652 445.493 162.268 445.493 159.808H443.493H441.493C441.493 161.7 441.106 163.54 440.317 165.342L442.15 166.144ZM443.493 159.808H445.493C445.493 157.352 444.986 155.097 443.91 153.1L442.15 154.048L440.389 154.996C441.105 156.327 441.493 157.912 441.493 159.808H443.493ZM442.15 154.048L443.988 153.26C443.149 151.302 441.917 149.195 440.327 146.943L438.694 148.096L437.06 149.249C438.542 151.349 439.614 153.21 440.311 154.836L442.15 154.048ZM438.694 148.096L440.327 146.943C439.512 145.787 438.697 144.821 437.877 144.124C437.091 143.456 436.062 142.832 434.854 142.832V144.832V146.832C434.669 146.832 434.792 146.752 435.286 147.172C435.746 147.563 436.339 148.229 437.06 149.249L438.694 148.096ZM434.854 144.832V142.832C431.108 142.832 426.535 143.728 421.193 145.422L421.797 147.328L422.402 149.234C427.556 147.6 431.687 146.832 434.854 146.832V144.832ZM421.797 147.328L419.803 147.481C420.183 152.42 420.374 157.489 420.374 162.688H422.374H424.374C424.374 157.391 424.18 152.22 423.792 147.175L421.797 147.328ZM519.368 129.28L517.54 130.092L518.585 132.443L520.606 130.851L519.368 129.28ZM558.728 131.968L557.366 133.433L557.377 133.443L557.388 133.453L558.728 131.968ZM575.816 152.32L573.969 153.086L573.971 153.093L573.974 153.099L575.816 152.32ZM575.816 225.28L577.632 226.118L577.645 226.089L577.658 226.059L575.816 225.28ZM559.112 244.48L560.424 245.989L560.431 245.984L560.437 245.978L559.112 244.48ZM498.44 256H496.44V258H498.44V256ZM496.136 151.936L494.239 152.568L494.247 152.594L494.256 152.619L496.136 151.936ZM486.92 136.96L485.776 135.319L484 136.557L485.375 138.23L486.92 136.96ZM512.264 119.296L513.476 117.705L512.316 116.822L511.12 117.655L512.264 119.296ZM524.36 150.4L523.552 148.571L522.166 149.183L522.38 150.683L524.36 150.4ZM524.936 232.768H522.936V234.768H524.936V232.768ZM544.52 228.928L543.072 227.549L543.07 227.551L544.52 228.928ZM549.896 221.44L551.724 222.252L551.732 222.234L551.739 222.216L549.896 221.44ZM549.896 158.272L548.053 159.048L548.06 159.066L548.068 159.084L549.896 158.272ZM544.52 150.784L543.037 152.126L543.07 152.163L543.106 152.198L544.52 150.784ZM519.368 129.28L520.606 130.851C524.774 127.567 528.378 125.152 531.427 123.566C534.507 121.965 536.858 121.296 538.568 121.296V119.296V117.296C535.926 117.296 532.901 118.291 529.581 120.018C526.23 121.76 522.41 124.337 518.13 127.709L519.368 129.28ZM538.568 119.296V121.296C540.169 121.296 542.541 122.104 545.808 124.157C549.02 126.176 552.869 129.252 557.366 133.433L558.728 131.968L560.09 130.503C555.499 126.236 551.444 122.976 547.936 120.771C544.483 118.6 541.319 117.296 538.568 117.296V119.296ZM558.728 131.968L557.388 133.453C566.585 141.755 571.977 148.284 573.969 153.086L575.816 152.32L577.664 151.554C575.303 145.86 569.303 138.821 560.068 130.483L558.728 131.968ZM575.816 152.32L573.974 153.099C574.542 154.442 575.055 157.085 575.407 161.271C575.752 165.385 575.928 170.779 575.928 177.472H577.928H579.928C579.928 170.725 579.752 165.207 579.393 160.937C579.041 156.739 578.498 153.526 577.658 151.541L575.816 152.32ZM577.928 177.472H575.928V200.128H577.928H579.928V177.472H577.928ZM577.928 200.128H575.928C575.928 206.821 575.752 212.215 575.407 216.329C575.055 220.515 574.542 223.158 573.974 224.501L575.816 225.28L577.658 226.059C578.498 224.074 579.041 220.861 579.393 216.663C579.752 212.393 579.928 206.875 579.928 200.128H577.928ZM575.816 225.28L574 224.442C571.884 229.028 566.596 235.195 557.787 242.982L559.112 244.48L560.437 245.978C569.292 238.149 575.14 231.516 577.632 226.118L575.816 225.28ZM559.112 244.48L557.8 242.971C553.446 246.757 549.612 249.54 546.292 251.368C542.95 253.207 540.27 254 538.184 254V256V258C541.218 258 544.586 256.873 548.22 254.872C551.876 252.86 555.946 249.883 560.424 245.989L559.112 244.48ZM538.184 256V254H498.44V256V258H538.184V256ZM498.44 256H500.44V173.824H498.44H496.44V256H498.44ZM498.44 173.824H500.44C500.44 163.448 499.683 155.837 498.016 151.253L496.136 151.936L494.256 152.619C495.661 156.483 496.44 163.464 496.44 173.824H498.44ZM496.136 151.936L498.033 151.304C496.513 146.742 493.266 141.529 488.465 135.69L486.92 136.96L485.375 138.23C490.046 143.911 492.943 148.682 494.239 152.568L496.136 151.936ZM486.92 136.96L488.064 138.601L513.408 120.937L512.264 119.296L511.12 117.655L485.776 135.319L486.92 136.96ZM512.264 119.296L511.052 120.887C513.373 122.655 515.567 125.652 517.54 130.092L519.368 129.28L521.196 128.468C519.073 123.692 516.531 120.033 513.476 117.705L512.264 119.296ZM538.184 146.752V144.752C534.074 144.752 529.171 146.088 523.552 148.571L524.36 150.4L525.168 152.229C530.557 149.848 534.87 148.752 538.184 148.752V146.752ZM524.36 150.4L522.38 150.683C522.743 153.224 522.936 157.203 522.936 162.688H524.936H526.936C526.936 157.165 526.745 152.952 526.34 150.117L524.36 150.4ZM524.936 162.688H522.936V232.768H524.936H526.936V162.688H524.936ZM524.936 232.768V234.768H538.184V232.768V230.768H524.936V232.768ZM538.184 232.768V234.768C540.862 234.768 543.483 232.923 545.97 230.305L544.52 228.928L543.07 227.551C540.693 230.053 539.09 230.768 538.184 230.768V232.768ZM544.52 228.928L545.968 230.307C548.619 227.524 550.574 224.84 551.724 222.252L549.896 221.44L548.068 220.628C547.17 222.648 545.541 224.956 543.072 227.549L544.52 228.928ZM549.896 221.44L551.739 222.216C552.39 220.67 552.786 218.15 553.042 214.926C553.304 211.619 553.432 207.321 553.432 202.048H551.432H549.432C549.432 207.271 549.304 211.453 549.054 214.61C548.798 217.85 548.426 219.778 548.053 220.664L549.896 221.44ZM551.432 202.048H553.432V177.472H551.432H549.432V202.048H551.432ZM551.432 177.472H553.432C553.432 172.2 553.304 167.916 553.042 164.641C552.787 161.459 552.391 158.962 551.724 157.46L549.896 158.272L548.068 159.084C548.425 159.886 548.797 161.741 549.054 164.959C549.304 168.084 549.432 172.248 549.432 177.472H551.432ZM549.896 158.272L551.739 157.496C550.585 154.755 548.614 152.049 545.934 149.37L544.52 150.784L543.106 152.198C545.546 154.639 547.159 156.925 548.053 159.048L549.896 158.272ZM544.52 150.784L546.003 149.442C543.531 146.71 540.901 144.752 538.184 144.752V146.752V148.752C539.05 148.752 540.645 149.482 543.037 152.126L544.52 150.784Z" fill="#032D66" mask="url(#path-2-outside-1_1_71)"/>
</g>
<defs>
<filter id="filter0_d_1_71" x="10.64" y="116.822" width="573.288" height="151.482" filterUnits="userSpaceOnUse" color-interpolation-filters="sRGB">
<feFlood flood-opacity="0" result="BackgroundImageFix"/>
<feColorMatrix in="SourceAlpha" type="matrix" values="0 0 0 0 0 0 0 0 0 0 0 0 0 0 0 0 0 0 127 0" result="hardAlpha"/>
<feOffset dy="4"/>
<feGaussianBlur stdDeviation="2"/>
<feComposite in2="hardAlpha" operator="out"/>
<feColorMatrix type="matrix" values="0 0 0 0 0 0 0 0 0 0 0 0 0 0 0 0 0 0 0.25 0"/>
<feBlend mode="normal" in2="BackgroundImageFix" result="effect1_dropShadow_1_71"/>
<feBlend mode="normal" in="SourceGraphic" in2="effect1_dropShadow_1_71" result="shape"/>
</filter>
</defs>
</svg>
