<svg width="300" height="190" viewBox="0 0 300 190" fill="none" xmlns="http://www.w3.org/2000/svg">
<path d="M150 188.224L2.80469 95L150 1.77539L297.196 95L150 188.224Z" fill="#EA1C28" stroke="#BC2C2B" stroke-width="3"/>
<g filter="url(#filter0_d_1_86)">
<mask id="path-2-outside-1_1_86" maskUnits="userSpaceOnUse" x="6.5" y="57.5" width="283" height="73" fill="black">
<rect fill="white" x="6.5" y="57.5" width="283" height="73"/>
<path d="M46.028 60.3V96.684C46.028 100.268 46.22 103.02 46.604 104.94C47.052 106.796 47.916 108.94 49.196 111.372C50.476 113.74 51.34 114.924 51.788 114.924C52.3 114.924 53.196 113.74 54.476 111.372C55.756 108.94 56.62 106.796 57.068 104.94C57.516 103.02 57.74 100.268 57.74 96.684V86.412C57.74 81.036 57.356 77.292 56.588 75.18C55.884 73.004 54.348 70.348 51.98 67.212L63.5 59.148C65.548 60.556 67.308 63.18 68.78 67.02C70.252 70.86 70.988 75.468 70.988 80.844V96.684C70.988 101.676 70.508 105.804 69.548 109.068C68.588 112.268 65.932 116.332 61.58 121.26C57.292 126.188 54.06 128.652 51.884 128.652C50.54 128.652 48.652 127.436 46.22 125.004C43.852 122.572 41.58 119.724 39.404 116.46C37.1 119.788 34.764 122.668 32.396 125.1C30.092 127.468 28.268 128.652 26.924 128.652C24.748 128.652 21.484 126.188 17.132 121.26C12.844 116.332 10.22 112.268 9.26 109.068C8.3 105.804 7.82 101.676 7.82 96.684V60.3H21.068V96.684C21.068 100.844 21.292 103.724 21.74 105.324C22.188 106.924 23.052 108.94 24.332 111.372C25.612 113.74 26.476 114.924 26.924 114.924C27.436 114.924 28.332 113.74 29.612 111.372C30.892 108.94 31.724 106.796 32.108 104.94C32.556 103.02 32.78 100.268 32.78 96.684V60.3H46.028ZM79.751 127.5V60.3H92.999V127.5H79.751ZM138.983 127.5H100.775V117.9L124.391 71.82H101.927V60.3H138.983V69.9L115.271 115.98H138.983V127.5ZM155.71 65.388C160.254 61.228 163.71 59.148 166.078 59.148C168.446 59.148 171.902 61.228 176.446 65.388C180.99 69.548 183.806 72.972 184.894 75.66C185.598 77.516 185.95 81.708 185.95 88.236V127.5H172.702V113.1H159.454V127.5H146.206V88.236C146.206 81.708 146.558 77.516 147.262 75.66C148.35 72.972 151.166 69.548 155.71 65.388ZM159.454 88.236V101.58H172.702V88.236C172.702 82.988 172.446 79.788 171.934 78.636C171.422 77.42 170.526 76.172 169.246 74.892C168.03 73.548 166.974 72.876 166.078 72.876C165.182 72.876 164.094 73.548 162.814 74.892C161.598 76.172 160.734 77.42 160.222 78.636C159.71 79.788 159.454 82.988 159.454 88.236ZM207.999 64.428C213.119 60.908 216.607 59.148 218.463 59.148C220.319 59.148 223.167 60.844 227.007 64.236C230.911 67.564 233.343 69.932 234.303 71.34C235.263 72.684 235.743 74.476 235.743 76.716C235.743 81.068 235.391 83.66 234.687 84.492C233.343 86.54 231.263 88.94 228.447 91.692C232.351 95.404 234.783 98.252 235.743 100.236C236.255 101.58 236.799 105.676 237.375 112.524C237.951 119.308 238.239 124.3 238.239 127.5H223.839C223.839 124.62 223.583 120.108 223.071 113.964C222.559 107.82 221.983 104.108 221.343 102.828C220.767 101.548 220.063 100.428 219.231 99.468H210.687V127.5H197.439V85.452C197.439 80.268 197.055 76.684 196.287 74.7C195.583 72.652 194.047 70.156 191.679 67.212L203.199 59.148C205.247 60.492 206.847 62.252 207.999 64.428ZM210.687 80.844V88.236H214.431C215.327 88.236 216.479 87.532 217.887 86.124C219.295 84.716 220.191 83.532 220.575 82.572C221.023 81.548 221.247 80.492 221.247 79.404C221.247 78.316 221.023 77.356 220.575 76.524C220.191 75.628 219.615 74.636 218.847 73.548C218.079 72.46 217.439 71.916 216.927 71.916C215.199 71.916 213.023 72.332 210.399 73.164C210.591 75.66 210.687 78.22 210.687 80.844ZM259.184 64.14C263.408 60.812 266.608 59.148 268.784 59.148C270.96 59.148 274.32 61.26 278.864 65.484C283.472 69.644 286.32 73.036 287.408 75.66C288.112 77.324 288.464 81.516 288.464 88.236V99.564C288.464 106.284 288.112 110.476 287.408 112.14C286.256 114.636 283.472 117.836 279.056 121.74C274.64 125.58 271.152 127.5 268.592 127.5H248.72V86.412C248.72 81.228 248.336 77.58 247.568 75.468C246.864 73.356 245.328 70.86 242.96 67.98L255.632 59.148C256.976 60.172 258.16 61.836 259.184 64.14ZM268.592 72.876C266.736 72.876 264.432 73.484 261.68 74.7C261.872 76.044 261.968 78.092 261.968 80.844V115.884H268.592C269.488 115.884 270.544 115.244 271.76 113.964C273.04 112.62 273.936 111.372 274.448 110.22C274.96 109.004 275.216 105.772 275.216 100.524V88.236C275.216 82.988 274.96 79.788 274.448 78.636C273.936 77.42 273.04 76.172 271.76 74.892C270.544 73.548 269.488 72.876 268.592 72.876Z"/>
</mask>
<path d="M46.028 60.3V96.684C46.028 100.268 46.22 103.02 46.604 104.94C47.052 106.796 47.916 108.94 49.196 111.372C50.476 113.74 51.34 114.924 51.788 114.924C52.3 114.924 53.196 113.74 54.476 111.372C55.756 108.94 56.62 106.796 57.068 104.94C57.516 103.02 57.74 100.268 57.74 96.684V86.412C57.74 81.036 57.356 77.292 56.588 75.18C55.884 73.004 54.348 70.348 51.98 67.212L63.5 59.148C65.548 60.556 67.308 63.18 68.78 67.02C70.252 70.86 70.988 75.468 70.988 80.844V96.684C70.988 101.676 70.508 105.804 69.548 109.068C68.588 112.268 65.932 116.332 61.58 121.26C57.292 126.188 54.06 128.652 51.884 128.652C50.54 128.652 48.652 127.436 46.22 125.004C43.852 122.572 41.58 119.724 39.404 116.46C37.1 119.788 34.764 122.668 32.396 125.1C30.092 127.468 28.268 128.652 26.924 128.652C24.748 128.652 21.484 126.188 17.132 121.26C12.844 116.332 10.22 112.268 9.26 109.068C8.3 105.804 7.82 101.676 7.82 96.684V60.3H21.068V96.684C21.068 100.844 21.292 103.724 21.74 105.324C22.188 106.924 23.052 108.94 24.332 111.372C25.612 113.74 26.476 114.924 26.924 114.924C27.436 114.924 28.332 113.74 29.612 111.372C30.892 108.94 31.724 106.796 32.108 104.94C32.556 103.02 32.78 100.268 32.78 96.684V60.3H46.028ZM79.751 127.5V60.3H92.999V127.5H79.751ZM138.983 127.5H100.775V117.9L124.391 71.82H101.927V60.3H138.983V69.9L115.271 115.98H138.983V127.5ZM155.71 65.388C160.254 61.228 163.71 59.148 166.078 59.148C168.446 59.148 171.902 61.228 176.446 65.388C180.99 69.548 183.806 72.972 184.894 75.66C185.598 77.516 185.95 81.708 185.95 88.236V127.5H172.702V113.1H159.454V127.5H146.206V88.236C146.206 81.708 146.558 77.516 147.262 75.66C148.35 72.972 151.166 69.548 155.71 65.388ZM159.454 88.236V101.58H172.702V88.236C172.702 82.988 172.446 79.788 171.934 78.636C171.422 77.42 170.526 76.172 169.246 74.892C168.03 73.548 166.974 72.876 166.078 72.876C165.182 72.876 164.094 73.548 162.814 74.892C161.598 76.172 160.734 77.42 160.222 78.636C159.71 79.788 159.454 82.988 159.454 88.236ZM207.999 64.428C213.119 60.908 216.607 59.148 218.463 59.148C220.319 59.148 223.167 60.844 227.007 64.236C230.911 67.564 233.343 69.932 234.303 71.34C235.263 72.684 235.743 74.476 235.743 76.716C235.743 81.068 235.391 83.66 234.687 84.492C233.343 86.54 231.263 88.94 228.447 91.692C232.351 95.404 234.783 98.252 235.743 100.236C236.255 101.58 236.799 105.676 237.375 112.524C237.951 119.308 238.239 124.3 238.239 127.5H223.839C223.839 124.62 223.583 120.108 223.071 113.964C222.559 107.82 221.983 104.108 221.343 102.828C220.767 101.548 220.063 100.428 219.231 99.468H210.687V127.5H197.439V85.452C197.439 80.268 197.055 76.684 196.287 74.7C195.583 72.652 194.047 70.156 191.679 67.212L203.199 59.148C205.247 60.492 206.847 62.252 207.999 64.428ZM210.687 80.844V88.236H214.431C215.327 88.236 216.479 87.532 217.887 86.124C219.295 84.716 220.191 83.532 220.575 82.572C221.023 81.548 221.247 80.492 221.247 79.404C221.247 78.316 221.023 77.356 220.575 76.524C220.191 75.628 219.615 74.636 218.847 73.548C218.079 72.46 217.439 71.916 216.927 71.916C215.199 71.916 213.023 72.332 210.399 73.164C210.591 75.66 210.687 78.22 210.687 80.844ZM259.184 64.14C263.408 60.812 266.608 59.148 268.784 59.148C270.96 59.148 274.32 61.26 278.864 65.484C283.472 69.644 286.32 73.036 287.408 75.66C288.112 77.324 288.464 81.516 288.464 88.236V99.564C288.464 106.284 288.112 110.476 287.408 112.14C286.256 114.636 283.472 117.836 279.056 121.74C274.64 125.58 271.152 127.5 268.592 127.5H248.72V86.412C248.72 81.228 248.336 77.58 247.568 75.468C246.864 73.356 245.328 70.86 242.96 67.98L255.632 59.148C256.976 60.172 258.16 61.836 259.184 64.14ZM268.592 72.876C266.736 72.876 264.432 73.484 261.68 74.7C261.872 76.044 261.968 78.092 261.968 80.844V115.884H268.592C269.488 115.884 270.544 115.244 271.76 113.964C273.04 112.62 273.936 111.372 274.448 110.22C274.96 109.004 275.216 105.772 275.216 100.524V88.236C275.216 82.988 274.96 79.788 274.448 78.636C273.936 77.42 273.04 76.172 271.76 74.892C270.544 73.548 269.488 72.876 268.592 72.876Z" fill="#FCCF51"/>
<path d="M46.028 60.3H47.028V59.3H46.028V60.3ZM46.604 104.94L45.6234 105.136L45.6273 105.155L45.6319 105.175L46.604 104.94ZM49.196 111.372L48.311 111.838L48.3163 111.848L49.196 111.372ZM54.476 111.372L55.3558 111.848L55.3609 111.838L54.476 111.372ZM57.068 104.94L58.0401 105.175L58.0418 105.167L57.068 104.94ZM56.588 75.18L55.6366 75.4878L55.6421 75.5049L55.6482 75.5217L56.588 75.18ZM51.98 67.212L51.4065 66.3928L50.5572 66.9873L51.182 67.8146L51.98 67.212ZM63.5 59.148L64.0665 58.324L63.4949 57.9309L62.9265 58.3288L63.5 59.148ZM69.548 109.068L70.5058 109.355L70.5074 109.35L69.548 109.068ZM61.58 121.26L60.8304 120.598L60.8256 120.604L61.58 121.26ZM46.22 125.004L45.5035 125.702L45.5129 125.711L46.22 125.004ZM39.404 116.46L40.236 115.905L39.4196 114.681L38.5818 115.891L39.404 116.46ZM32.396 125.1L31.6795 124.402L31.6793 124.403L32.396 125.1ZM17.132 121.26L16.3776 121.916L16.3824 121.922L17.132 121.26ZM9.26 109.068L8.30062 109.35L8.30217 109.355L9.26 109.068ZM7.82 60.3V59.3H6.82V60.3H7.82ZM21.068 60.3H22.068V59.3H21.068V60.3ZM21.74 105.324L20.777 105.594V105.594L21.74 105.324ZM24.332 111.372L23.447 111.838L23.4523 111.848L24.332 111.372ZM29.612 111.372L30.4918 111.848L30.4969 111.838L29.612 111.372ZM32.108 104.94L31.1342 104.713L31.1313 104.725L31.1287 104.737L32.108 104.94ZM32.78 60.3V59.3H31.78V60.3H32.78ZM46.028 60.3H45.028V96.684H46.028H47.028V60.3H46.028ZM46.028 96.684H45.028C45.028 100.289 45.22 103.119 45.6234 105.136L46.604 104.94L47.5846 104.744C47.22 102.921 47.028 100.247 47.028 96.684H46.028ZM46.604 104.94L45.6319 105.175C46.1057 107.138 47.0079 109.362 48.3111 111.838L49.196 111.372L50.0809 110.906C48.8241 108.518 47.9983 106.454 47.5761 104.705L46.604 104.94ZM49.196 111.372L48.3163 111.848C48.9632 113.044 49.5243 113.979 49.9962 114.625C50.23 114.946 50.4666 115.23 50.704 115.444C50.8979 115.619 51.2793 115.924 51.788 115.924V114.924V113.924C52.0727 113.924 52.1781 114.081 52.044 113.96C51.9534 113.878 51.81 113.718 51.6118 113.447C51.2197 112.909 50.7088 112.068 50.0757 110.896L49.196 111.372ZM51.788 114.924V115.924C52.2772 115.924 52.6595 115.659 52.8876 115.467C53.1447 115.251 53.3962 114.963 53.6414 114.639C54.1353 113.987 54.7076 113.047 55.3557 111.848L54.476 111.372L53.5963 110.896C52.9644 112.065 52.4487 112.901 52.0466 113.433C51.8438 113.701 51.6953 113.857 51.6004 113.937C51.4765 114.041 51.5548 113.924 51.788 113.924V114.924ZM54.476 111.372L55.3609 111.838C56.6641 109.362 57.5663 107.138 58.0401 105.175L57.068 104.94L56.0959 104.705C55.6737 106.454 54.8479 108.518 53.5911 110.906L54.476 111.372ZM57.068 104.94L58.0418 105.167C58.5159 103.135 58.74 100.293 58.74 96.684H57.74H56.74C56.74 100.243 56.5161 102.905 56.0942 104.713L57.068 104.94ZM57.74 96.684H58.74V86.412H57.74H56.74V96.684H57.74ZM57.74 86.412H58.74C58.74 81.0371 58.3622 77.1327 57.5278 74.8383L56.588 75.18L55.6482 75.5217C56.3498 77.4513 56.74 81.0349 56.74 86.412H57.74ZM56.588 75.18L57.5394 74.8722C56.785 72.5404 55.1722 69.7801 52.778 66.6094L51.98 67.212L51.182 67.8146C53.5238 70.9159 54.983 73.4676 55.6366 75.4878L56.588 75.18ZM51.98 67.212L52.5535 68.0312L64.0735 59.9672L63.5 59.148L62.9265 58.3288L51.4065 66.3928L51.98 67.212ZM63.5 59.148L62.9335 59.972C64.7377 61.2124 66.4038 63.615 67.8463 67.3779L68.78 67.02L69.7137 66.6621C68.2122 62.745 66.3583 59.8996 64.0665 58.324L63.5 59.148ZM68.78 67.02L67.8463 67.3779C69.2633 71.0746 69.988 75.5547 69.988 80.844H70.988H71.988C71.988 75.3813 71.2407 70.6454 69.7137 66.6621L68.78 67.02ZM70.988 80.844H69.988V96.684H70.988H71.988V80.844H70.988ZM70.988 96.684H69.988C69.988 101.621 69.5123 105.645 68.5886 108.786L69.548 109.068L70.5074 109.35C71.5037 105.963 71.988 101.731 71.988 96.684H70.988ZM69.548 109.068L68.5902 108.781C67.6951 111.764 65.1618 115.693 60.8304 120.598L61.58 121.26L62.3296 121.922C66.7022 116.971 69.4809 112.772 70.5058 109.355L69.548 109.068ZM61.58 121.26L60.8256 120.604C58.7028 123.043 56.8734 124.835 55.3337 126.009C53.761 127.208 52.6315 127.652 51.884 127.652V128.652V129.652C53.3125 129.652 54.887 128.864 56.5463 127.599C58.2386 126.309 60.1692 124.405 62.3344 121.916L61.58 121.26ZM51.884 128.652V127.652C51.4936 127.652 50.8809 127.466 50.0015 126.899C49.1399 126.344 48.1163 125.486 46.9271 124.297L46.22 125.004L45.5129 125.711C46.7557 126.954 47.8921 127.92 48.9185 128.581C49.9271 129.23 50.9304 129.652 51.884 129.652V128.652ZM46.22 125.004L46.9365 124.306C44.6173 121.925 42.3831 119.126 40.236 115.905L39.404 116.46L38.572 117.015C40.7769 120.322 43.0867 123.219 45.5035 125.702L46.22 125.004ZM39.404 116.46L38.5818 115.891C36.3036 119.182 34.0022 122.017 31.6795 124.402L32.396 125.1L33.1125 125.798C35.5258 123.319 37.8964 120.394 40.2262 117.029L39.404 116.46ZM32.396 125.1L31.6793 124.403C30.5554 125.558 29.5817 126.389 28.7555 126.925C27.9147 127.471 27.3172 127.652 26.924 127.652V128.652V129.652C27.8748 129.652 28.8613 129.241 29.8445 128.603C30.8423 127.955 31.9326 127.01 33.1127 125.797L32.396 125.1ZM26.924 128.652V127.652C26.1748 127.652 25.0366 127.206 23.4465 126.006C21.8901 124.831 20.0365 123.038 17.8816 120.598L17.132 121.26L16.3824 121.922C18.5795 124.41 20.5339 126.313 22.2415 127.602C23.9154 128.866 25.4972 129.652 26.924 129.652V128.652ZM17.132 121.26L17.8864 120.604C13.6194 115.7 11.1142 111.768 10.2178 108.781L9.26 109.068L8.30217 109.355C9.32584 112.768 12.0686 116.964 16.3776 121.916L17.132 121.26ZM9.26 109.068L10.2194 108.786C9.2957 105.645 8.82 101.621 8.82 96.684H7.82H6.82C6.82 101.731 7.3043 105.963 8.30063 109.35L9.26 109.068ZM7.82 96.684H8.82V60.3H7.82H6.82V96.684H7.82ZM7.82 60.3V61.3H21.068V60.3V59.3H7.82V60.3ZM21.068 60.3H20.068V96.684H21.068H22.068V60.3H21.068ZM21.068 96.684H20.068C20.068 100.839 20.2877 103.846 20.777 105.594L21.74 105.324L22.703 105.054C22.2963 103.602 22.068 100.849 22.068 96.684H21.068ZM21.74 105.324L20.777 105.594C21.2523 107.291 22.1526 109.378 23.4471 111.838L24.332 111.372L25.2169 110.906C23.9514 108.502 23.1237 106.557 22.703 105.054L21.74 105.324ZM24.332 111.372L23.4523 111.848C24.0992 113.044 24.6603 113.979 25.1322 114.625C25.366 114.946 25.6026 115.23 25.84 115.444C26.0339 115.619 26.4153 115.924 26.924 115.924V114.924V113.924C27.2087 113.924 27.3141 114.081 27.18 113.96C27.0894 113.878 26.946 113.718 26.7478 113.447C26.3557 112.909 25.8448 112.068 25.2117 110.896L24.332 111.372ZM26.924 114.924V115.924C27.4132 115.924 27.7955 115.659 28.0236 115.467C28.2807 115.251 28.5322 114.963 28.7774 114.639C29.2713 113.987 29.8436 113.047 30.4917 111.848L29.612 111.372L28.7323 110.896C28.1004 112.065 27.5847 112.901 27.1826 113.433C26.9798 113.701 26.8313 113.857 26.7364 113.937C26.6125 114.041 26.6908 113.924 26.924 113.924V114.924ZM29.612 111.372L30.4969 111.838C31.8028 109.357 32.6779 107.121 33.0873 105.143L32.108 104.94L31.1287 104.737C30.7701 106.471 29.9812 108.523 28.7271 110.906L29.612 111.372ZM32.108 104.94L33.0818 105.167C33.5559 103.135 33.78 100.293 33.78 96.684H32.78H31.78C31.78 100.243 31.5561 102.905 31.1342 104.713L32.108 104.94ZM32.78 96.684H33.78V60.3H32.78H31.78V96.684H32.78ZM32.78 60.3V61.3H46.028V60.3V59.3H32.78V60.3ZM79.751 127.5H78.751V128.5H79.751V127.5ZM79.751 60.3V59.3H78.751V60.3H79.751ZM92.999 60.3H93.999V59.3H92.999V60.3ZM92.999 127.5V128.5H93.999V127.5H92.999ZM79.751 127.5H80.751V60.3H79.751H78.751V127.5H79.751ZM79.751 60.3V61.3H92.999V60.3V59.3H79.751V60.3ZM92.999 60.3H91.999V127.5H92.999H93.999V60.3H92.999ZM92.999 127.5V126.5H79.751V127.5V128.5H92.999V127.5ZM138.983 127.5V128.5H139.983V127.5H138.983ZM100.775 127.5H99.775V128.5H100.775V127.5ZM100.775 117.9L99.8851 117.444L99.775 117.659V117.9H100.775ZM124.391 71.82L125.281 72.2761L126.027 70.82H124.391V71.82ZM101.927 71.82H100.927V72.82H101.927V71.82ZM101.927 60.3V59.3H100.927V60.3H101.927ZM138.983 60.3H139.983V59.3H138.983V60.3ZM138.983 69.9L139.872 70.3576L139.983 70.1422V69.9H138.983ZM115.271 115.98L114.382 115.522L113.632 116.98H115.271V115.98ZM138.983 115.98H139.983V114.98H138.983V115.98ZM138.983 127.5V126.5H100.775V127.5V128.5H138.983V127.5ZM100.775 127.5H101.775V117.9H100.775H99.775V127.5H100.775ZM100.775 117.9L101.665 118.356L125.281 72.2761L124.391 71.82L123.501 71.3639L99.8851 117.444L100.775 117.9ZM124.391 71.82V70.82H101.927V71.82V72.82H124.391V71.82ZM101.927 71.82H102.927V60.3H101.927H100.927V71.82H101.927ZM101.927 60.3V61.3H138.983V60.3V59.3H101.927V60.3ZM138.983 60.3H137.983V69.9H138.983H139.983V60.3H138.983ZM138.983 69.9L138.094 69.4424L114.382 115.522L115.271 115.98L116.16 116.438L139.872 70.3576L138.983 69.9ZM115.271 115.98V116.98H138.983V115.98V114.98H115.271V115.98ZM138.983 115.98H137.983V127.5H138.983H139.983V115.98H138.983ZM155.71 65.388L155.035 64.6504V64.6504L155.71 65.388ZM184.894 75.66L185.829 75.3053L185.825 75.295L185.821 75.2848L184.894 75.66ZM185.95 127.5V128.5H186.95V127.5H185.95ZM172.702 127.5H171.702V128.5H172.702V127.5ZM172.702 113.1H173.702V112.1H172.702V113.1ZM159.454 113.1V112.1H158.454V113.1H159.454ZM159.454 127.5V128.5H160.454V127.5H159.454ZM146.206 127.5H145.206V128.5H146.206V127.5ZM147.262 75.66L146.335 75.2848L146.331 75.295L146.327 75.3053L147.262 75.66ZM159.454 101.58H158.454V102.58H159.454V101.58ZM172.702 101.58V102.58H173.702V101.58H172.702ZM171.934 78.636L171.013 79.0241L171.016 79.0331L171.02 79.0421L171.934 78.636ZM169.246 74.892L168.505 75.5629L168.521 75.5814L168.539 75.5991L169.246 74.892ZM162.814 74.892L162.09 74.2023L162.089 74.2032L162.814 74.892ZM160.222 78.636L161.136 79.0421L161.14 79.0331L161.144 79.0241L160.222 78.636ZM155.71 65.388L156.385 66.1256C158.631 64.0697 160.576 62.5575 162.226 61.5648C163.895 60.5604 165.163 60.148 166.078 60.148V59.148V58.148C164.626 58.148 162.982 58.7756 161.195 59.8512C159.388 60.9385 157.333 62.5463 155.035 64.6504L155.71 65.388ZM166.078 59.148V60.148C166.994 60.148 168.262 60.5604 169.931 61.5648C171.58 62.5575 173.525 64.0697 175.771 66.1256L176.446 65.388L177.122 64.6504C174.823 62.5463 172.768 60.9385 170.962 59.8512C169.175 58.7756 167.531 58.148 166.078 58.148V59.148ZM176.446 65.388L175.771 66.1256C180.302 70.2734 182.969 73.5696 183.967 76.0352L184.894 75.66L185.821 75.2848C184.643 72.3744 181.679 68.8226 177.122 64.6504L176.446 65.388ZM184.894 75.66L183.959 76.0147C184.259 76.8037 184.515 78.1969 184.69 80.2797C184.863 82.3371 184.95 84.9865 184.95 88.236H185.95H186.95C186.95 84.9575 186.862 82.2469 186.683 80.1123C186.506 78.0031 186.234 76.3723 185.829 75.3053L184.894 75.66ZM185.95 88.236H184.95V127.5H185.95H186.95V88.236H185.95ZM185.95 127.5V126.5H172.702V127.5V128.5H185.95V127.5ZM172.702 127.5H173.702V113.1H172.702H171.702V127.5H172.702ZM172.702 113.1V112.1H159.454V113.1V114.1H172.702V113.1ZM159.454 113.1H158.454V127.5H159.454H160.454V113.1H159.454ZM159.454 127.5V126.5H146.206V127.5V128.5H159.454V127.5ZM146.206 127.5H147.206V88.236H146.206H145.206V127.5H146.206ZM146.206 88.236H147.206C147.206 84.9865 147.294 82.3371 147.467 80.2797C147.642 78.1969 147.898 76.8037 148.197 76.0147L147.262 75.66L146.327 75.3053C145.923 76.3723 145.651 78.0031 145.474 80.1123C145.295 82.2469 145.206 84.9575 145.206 88.236H146.206ZM147.262 75.66L148.189 76.0352C149.187 73.5696 151.855 70.2734 156.385 66.1256L155.71 65.388L155.035 64.6504C150.478 68.8226 147.513 72.3744 146.335 75.2848L147.262 75.66ZM159.454 88.236H158.454V101.58H159.454H160.454V88.236H159.454ZM159.454 101.58V102.58H172.702V101.58V100.58H159.454V101.58ZM172.702 101.58H173.702V88.236H172.702H171.702V101.58H172.702ZM172.702 88.236H173.702C173.702 85.5998 173.638 83.458 173.507 81.8203C173.38 80.2295 173.182 78.981 172.848 78.2299L171.934 78.636L171.02 79.0421C171.199 79.443 171.385 80.3705 171.513 81.9797C171.638 83.542 171.702 85.6242 171.702 88.236H172.702ZM171.934 78.636L172.856 78.2479C172.279 76.8773 171.293 75.5246 169.953 74.1849L169.246 74.892L168.539 75.5991C169.759 76.8194 170.566 77.9627 171.013 79.0241L171.934 78.636ZM169.246 74.892L169.988 74.2211C168.752 72.8552 167.437 71.876 166.078 71.876V72.876V73.876C166.512 73.876 167.309 74.2408 168.505 75.5629L169.246 74.892ZM166.078 72.876V71.876C165.382 71.876 164.703 72.1352 164.065 72.5292C163.423 72.9254 162.765 73.4936 162.09 74.2023L162.814 74.892L163.538 75.5817C164.143 74.9464 164.669 74.5066 165.116 74.2308C165.566 73.9528 165.879 73.876 166.078 73.876V72.876ZM162.814 74.892L162.089 74.2032C160.817 75.543 159.872 76.8901 159.301 78.2479L160.222 78.636L161.144 79.0241C161.596 77.9499 162.38 76.801 163.539 75.5807L162.814 74.892ZM160.222 78.636L159.308 78.2299C158.975 78.981 158.777 80.2295 158.649 81.8203C158.518 83.458 158.454 85.5998 158.454 88.236H159.454H160.454C160.454 85.6242 160.518 83.542 160.643 81.9797C160.772 80.3705 160.958 79.443 161.136 79.0421L160.222 78.636ZM207.999 64.428L207.115 64.8959L207.64 65.888L208.565 65.252L207.999 64.428ZM227.007 64.236L226.345 64.9855L226.351 64.9913L226.358 64.997L227.007 64.236ZM234.303 71.34L233.477 71.9033L233.483 71.9124L233.489 71.9212L234.303 71.34ZM234.687 84.492L233.923 83.8461L233.884 83.8925L233.851 83.9433L234.687 84.492ZM228.447 91.692L227.748 90.9768L227.006 91.7019L227.758 92.4167L228.447 91.692ZM235.743 100.236L236.677 99.88L236.662 99.8395L236.643 99.8004L235.743 100.236ZM237.375 112.524L236.378 112.608L236.378 112.609L237.375 112.524ZM238.239 127.5V128.5H239.239V127.5H238.239ZM223.839 127.5H222.839V128.5H223.839V127.5ZM223.071 113.964L222.074 114.047V114.047L223.071 113.964ZM221.343 102.828L220.431 103.238L220.439 103.257L220.448 103.275L221.343 102.828ZM219.231 99.468L219.986 98.8131L219.687 98.468H219.231V99.468ZM210.687 99.468V98.468H209.687V99.468H210.687ZM210.687 127.5V128.5H211.687V127.5H210.687ZM197.439 127.5H196.439V128.5H197.439V127.5ZM196.287 74.7L195.341 75.0251L195.347 75.0432L195.354 75.061L196.287 74.7ZM191.679 67.212L191.105 66.3928L190.23 67.0058L190.9 67.8388L191.679 67.212ZM203.199 59.148L203.747 58.312L203.181 57.94L202.625 58.3288L203.199 59.148ZM210.687 88.236H209.687V89.236H210.687V88.236ZM220.575 82.572L219.659 82.1712L219.652 82.1858L219.646 82.2006L220.575 82.572ZM220.575 76.524L219.656 76.9179L219.673 76.9589L219.694 76.9981L220.575 76.524ZM210.399 73.164L210.097 72.2108L209.341 72.4503L209.402 73.2407L210.399 73.164ZM207.999 64.428L208.565 65.252C211.107 63.5046 213.218 62.2123 214.905 61.3608C216.631 60.4899 217.786 60.148 218.463 60.148V59.148V58.148C217.283 58.148 215.766 58.6861 214.004 59.5752C212.204 60.4837 210.01 61.8315 207.432 63.604L207.999 64.428ZM218.463 59.148V60.148C219.119 60.148 220.105 60.4609 221.479 61.2792C222.829 62.0831 224.449 63.311 226.345 64.9855L227.007 64.236L227.669 63.4865C225.724 61.769 224 60.4529 222.502 59.5608C221.029 58.6831 219.663 58.148 218.463 58.148V59.148ZM227.007 64.236L226.358 64.997C230.28 68.3405 232.605 70.6247 233.477 71.9033L234.303 71.34L235.129 70.7767C234.081 69.2393 231.541 66.7875 227.655 63.475L227.007 64.236ZM234.303 71.34L233.489 71.9212C234.291 73.0447 234.743 74.6115 234.743 76.716H235.743H236.743C236.743 74.3405 236.234 72.3233 235.116 70.7588L234.303 71.34ZM235.743 76.716H234.743C234.743 78.8723 234.655 80.5576 234.488 81.7894C234.404 82.4055 234.304 82.8854 234.193 83.2433C234.079 83.6149 233.974 83.7863 233.923 83.8461L234.687 84.492L235.45 85.1379C235.752 84.7817 235.955 84.3171 236.104 83.8327C236.258 83.3346 236.377 82.7385 236.47 82.0586C236.654 80.6984 236.743 78.9117 236.743 76.716H235.743ZM234.687 84.492L233.851 83.9433C232.563 85.906 230.539 88.2488 227.748 90.9768L228.447 91.692L229.146 92.4072C231.986 89.6312 234.123 87.174 235.523 85.0407L234.687 84.492ZM228.447 91.692L227.758 92.4167C231.665 96.1317 233.97 98.8692 234.843 100.672L235.743 100.236L236.643 99.8004C235.595 97.6348 233.037 94.6763 229.136 90.9673L228.447 91.692ZM235.743 100.236L234.808 100.592C235.016 101.138 235.269 102.383 235.543 104.448C235.812 106.473 236.091 109.191 236.378 112.608L237.375 112.524L238.371 112.44C238.083 109.009 237.801 106.255 237.526 104.184C237.256 102.153 236.981 100.678 236.677 99.88L235.743 100.236ZM237.375 112.524L236.378 112.609C236.954 119.388 237.239 124.345 237.239 127.5H238.239H239.239C239.239 124.255 238.948 119.228 238.371 112.439L237.375 112.524ZM238.239 127.5V126.5H223.839V127.5V128.5H238.239V127.5ZM223.839 127.5H224.839C224.839 124.576 224.58 120.029 224.067 113.881L223.071 113.964L222.074 114.047C222.586 120.187 222.839 124.664 222.839 127.5H223.839ZM223.071 113.964L224.067 113.881C223.81 110.798 223.536 108.308 223.243 106.419C222.957 104.574 222.636 103.179 222.237 102.381L221.343 102.828L220.448 103.275C220.689 103.757 220.977 104.858 221.267 106.725C221.549 108.548 221.819 110.986 222.074 114.047L223.071 113.964ZM221.343 102.828L222.255 102.418C221.643 101.058 220.888 99.8538 219.986 98.8131L219.231 99.468L218.475 100.123C219.237 101.002 219.891 102.038 220.431 103.238L221.343 102.828ZM219.231 99.468V98.468H210.687V99.468V100.468H219.231V99.468ZM210.687 99.468H209.687V127.5H210.687H211.687V99.468H210.687ZM210.687 127.5V126.5H197.439V127.5V128.5H210.687V127.5ZM197.439 127.5H198.439V85.452H197.439H196.439V127.5H197.439ZM197.439 85.452H198.439C198.439 80.2722 198.062 76.5161 197.219 74.339L196.287 74.7L195.354 75.061C196.047 76.8519 196.439 80.2638 196.439 85.452H197.439ZM196.287 74.7L197.232 74.3749C196.473 72.165 194.853 69.5626 192.458 66.5852L191.679 67.212L190.9 67.8388C193.241 70.7494 194.693 73.139 195.341 75.0251L196.287 74.7ZM191.679 67.212L192.252 68.0312L203.772 59.9672L203.199 59.148L202.625 58.3288L191.105 66.3928L191.679 67.212ZM203.199 59.148L202.65 59.984C204.556 61.235 206.041 62.8681 207.115 64.8959L207.999 64.428L208.883 63.9601C207.652 61.6359 205.937 59.7489 203.747 58.312L203.199 59.148ZM210.687 80.844H209.687V88.236H210.687H211.687V80.844H210.687ZM210.687 88.236V89.236H214.431V88.236V87.236H210.687V88.236ZM214.431 88.236V89.236C215.133 89.236 215.829 88.9641 216.488 88.5613C217.155 88.1536 217.858 87.5672 218.594 86.8311L217.887 86.124L217.18 85.4169C216.508 86.0887 215.93 86.5584 215.445 86.8547C214.952 87.1559 214.624 87.236 214.431 87.236V88.236ZM217.887 86.124L218.594 86.8311C220.025 85.3996 221.041 84.0981 221.503 82.9434L220.575 82.572L219.646 82.2006C219.34 82.9659 218.564 84.0324 217.18 85.4169L217.887 86.124ZM220.575 82.572L221.491 82.9728C221.993 81.826 222.247 80.6338 222.247 79.404H221.247H220.247C220.247 80.3502 220.053 81.27 219.659 82.1712L220.575 82.572ZM221.247 79.404H222.247C222.247 78.1758 221.993 77.0483 221.455 76.0499L220.575 76.524L219.694 76.9981C220.053 77.6637 220.247 78.4562 220.247 79.404H221.247ZM220.575 76.524L221.494 76.1301C221.074 75.1512 220.459 74.0973 219.664 72.9713L218.847 73.548L218.03 74.1247C218.771 75.1747 219.307 76.1048 219.656 76.9179L220.575 76.524ZM218.847 73.548L219.664 72.9713C219.256 72.3937 218.848 71.9106 218.438 71.5621C218.045 71.228 217.531 70.916 216.927 70.916V71.916V72.916C216.835 72.916 216.896 72.876 217.143 73.0859C217.373 73.2814 217.67 73.6143 218.03 74.1247L218.847 73.548ZM216.927 71.916V70.916C215.054 70.916 212.768 71.3638 210.097 72.2108L210.399 73.164L210.701 74.1172C213.278 73.3001 215.344 72.916 216.927 72.916V71.916ZM210.399 73.164L209.402 73.2407C209.592 75.71 209.687 78.2444 209.687 80.844H210.687H211.687C211.687 78.1956 211.59 75.61 211.396 73.0873L210.399 73.164ZM259.184 64.14L258.27 64.5461L258.793 65.7215L259.803 64.9255L259.184 64.14ZM278.864 65.484L278.183 66.2164L278.188 66.2214L278.194 66.2263L278.864 65.484ZM287.408 75.66L286.484 76.043L286.487 76.0496L287.408 75.66ZM287.408 112.14L288.316 112.559L288.323 112.544L288.329 112.53L287.408 112.14ZM279.056 121.74L279.712 122.495L279.718 122.489L279.056 121.74ZM248.72 127.5H247.72V128.5H248.72V127.5ZM247.568 75.468L246.619 75.7842L246.624 75.797L246.628 75.8097L247.568 75.468ZM242.96 67.98L242.388 67.1596L241.5 67.7787L242.188 68.6151L242.96 67.98ZM255.632 59.148L256.238 58.3526L255.658 57.9108L255.06 58.3276L255.632 59.148ZM261.68 74.7L261.276 73.7853L260.583 74.0915L260.69 74.8414L261.68 74.7ZM261.968 115.884H260.968V116.884H261.968V115.884ZM271.76 113.964L271.036 113.274L271.035 113.275L271.76 113.964ZM274.448 110.22L275.362 110.626L275.366 110.617L275.37 110.608L274.448 110.22ZM274.448 78.636L273.526 79.0241L273.53 79.0331L273.534 79.0421L274.448 78.636ZM271.76 74.892L271.018 75.5629L271.035 75.5814L271.053 75.5991L271.76 74.892ZM259.184 64.14L259.803 64.9255C261.887 63.2834 263.689 62.076 265.213 61.2832C266.753 60.4824 267.929 60.148 268.784 60.148V59.148V58.148C267.463 58.148 265.951 58.6456 264.291 59.5088C262.615 60.38 260.705 61.6686 258.565 63.3545L259.184 64.14ZM268.784 59.148V60.148C269.584 60.148 270.77 60.552 272.404 61.5786C274.01 62.5882 275.935 64.1261 278.183 66.2164L278.864 65.484L279.545 64.7516C277.249 62.6179 275.222 60.9878 273.468 59.8854C271.742 58.8 270.16 58.148 268.784 58.148V59.148ZM278.864 65.484L278.194 66.2263C282.792 70.3776 285.489 73.642 286.484 76.043L287.408 75.66L288.332 75.277C287.151 72.43 284.152 68.9104 279.534 64.7417L278.864 65.484ZM287.408 75.66L286.487 76.0496C286.771 76.721 287.028 78.0425 287.204 80.1357C287.376 82.1925 287.464 84.8896 287.464 88.236H288.464H289.464C289.464 84.8624 289.376 82.1035 289.197 79.9683C289.02 77.8695 288.749 76.263 288.329 75.2704L287.408 75.66ZM288.464 88.236H287.464V99.564H288.464H289.464V88.236H288.464ZM288.464 99.564H287.464C287.464 102.91 287.376 105.607 287.204 107.664C287.028 109.758 286.771 111.079 286.487 111.75L287.408 112.14L288.329 112.53C288.749 111.537 289.02 109.93 289.197 107.832C289.376 105.697 289.464 102.938 289.464 99.564H288.464ZM287.408 112.14L286.5 111.721C285.442 114.014 282.798 117.097 278.394 120.991L279.056 121.74L279.718 122.489C284.146 118.575 287.07 115.258 288.316 112.559L287.408 112.14ZM279.056 121.74L278.4 120.985C276.223 122.878 274.306 124.27 272.646 125.184C270.975 126.104 269.635 126.5 268.592 126.5V127.5V128.5C270.109 128.5 271.793 127.936 273.61 126.936C275.438 125.93 277.473 124.442 279.712 122.495L279.056 121.74ZM268.592 127.5V126.5H248.72V127.5V128.5H268.592V127.5ZM248.72 127.5H249.72V86.412H248.72H247.72V127.5H248.72ZM248.72 86.412H249.72C249.72 81.224 249.341 77.4187 248.508 75.1263L247.568 75.468L246.628 75.8097C247.331 77.7413 247.72 81.232 247.72 86.412H248.72ZM247.568 75.468L248.517 75.1518C247.756 72.8711 246.133 70.2644 243.732 67.3449L242.96 67.98L242.188 68.6151C244.523 71.4556 245.972 73.8409 246.619 75.7842L247.568 75.468ZM242.96 67.98L243.532 68.8004L256.204 59.9684L255.632 59.148L255.06 58.3276L242.388 67.1596L242.96 67.98ZM255.632 59.148L255.026 59.9434C256.186 60.8276 257.283 62.3259 258.27 64.5461L259.184 64.14L260.098 63.7339C259.037 61.3461 257.766 59.5164 256.238 58.3526L255.632 59.148ZM268.592 72.876V71.876C266.537 71.876 264.086 72.5438 261.276 73.7853L261.68 74.7L262.084 75.6147C264.778 74.4242 266.935 73.876 268.592 73.876V72.876ZM261.68 74.7L260.69 74.8414C260.872 76.1121 260.968 78.1016 260.968 80.844H261.968H262.968C262.968 78.0824 262.872 75.9759 262.67 74.5586L261.68 74.7ZM261.968 80.844H260.968V115.884H261.968H262.968V80.844H261.968ZM261.968 115.884V116.884H268.592V115.884V114.884H261.968V115.884ZM268.592 115.884V116.884C269.931 116.884 271.242 115.962 272.485 114.653L271.76 113.964L271.035 113.275C269.846 114.526 269.045 114.884 268.592 114.884V115.884ZM271.76 113.964L272.484 114.654C273.809 113.262 274.787 111.92 275.362 110.626L274.448 110.22L273.534 109.814C273.085 110.824 272.271 111.978 271.036 113.274L271.76 113.964ZM274.448 110.22L275.37 110.608C275.695 109.835 275.893 108.575 276.021 106.963C276.152 105.31 276.216 103.16 276.216 100.524H275.216H274.216C274.216 103.136 274.152 105.226 274.027 106.805C273.899 108.425 273.713 109.389 273.526 109.832L274.448 110.22ZM275.216 100.524H276.216V88.236H275.216H274.216V100.524H275.216ZM275.216 88.236H276.216C276.216 85.5998 276.152 83.458 276.021 81.8203C275.894 80.2295 275.696 78.981 275.362 78.2299L274.448 78.636L273.534 79.0421C273.712 79.443 273.898 80.3705 274.027 81.9797C274.152 83.542 274.216 85.6242 274.216 88.236H275.216ZM274.448 78.636L275.37 78.2479C274.793 76.8773 273.807 75.5246 272.467 74.1849L271.76 74.892L271.053 75.5991C272.273 76.8194 273.079 77.9627 273.526 79.0241L274.448 78.636ZM271.76 74.892L272.502 74.2211C271.266 72.8552 269.951 71.876 268.592 71.876V72.876V73.876C269.025 73.876 269.822 74.2408 271.018 75.5629L271.76 74.892Z" fill="#032D66" mask="url(#path-2-outside-1_1_86)"/>
</g>
<defs>
<filter id="filter0_d_1_86" x="2.82001" y="57.9108" width="290.644" height="79.7412" filterUnits="userSpaceOnUse" color-interpolation-filters="sRGB">
<feFlood flood-opacity="0" result="BackgroundImageFix"/>
<feColorMatrix in="SourceAlpha" type="matrix" values="0 0 0 0 0 0 0 0 0 0 0 0 0 0 0 0 0 0 127 0" result="hardAlpha"/>
<feOffset dy="4"/>
<feGaussianBlur stdDeviation="2"/>
<feComposite in2="hardAlpha" operator="out"/>
<feColorMatrix type="matrix" values="0 0 0 0 0 0 0 0 0 0 0 0 0 0 0 0 0 0 0.25 0"/>
<feBlend mode="normal" in2="BackgroundImageFix" result="effect1_dropShadow_1_86"/>
<feBlend mode="normal" in="SourceGraphic" in2="effect1_dropShadow_1_86" result="shape"/>
</filter>
</defs>
</svg>
